<svg width="190" height="48" viewBox="0 0 190 48" fill="none" xmlns="http://www.w3.org/2000/svg">
<path d="M20.9506 38C26.7906 38 30.4706 34.84 30.4706 29.72C30.4706 26.4 28.9906 24.04 26.1106 22.88C27.9506 21.68 28.9106 19.56 28.9106 17.16C28.9106 12.8 25.2706 10.12 19.4306 10.12H2.55063V38H20.9506ZM9.87063 15.4H18.6706C20.5506 15.4 21.5506 16.4 21.5506 18.2C21.5506 20.08 20.5506 21.08 18.6706 21.08H9.87063V15.4ZM9.87063 26.24H19.6306C21.9106 26.24 23.1106 27.28 23.1106 29.32C23.1106 31.48 21.8706 32.72 19.6306 32.72H9.87063V26.24ZM56.7616 38V32.72H40.9616V26.64H55.6816V21.28H40.9616V15.4H56.7616V10.12H33.7216V38H56.7616ZM74.9975 38C84.7975 38 90.2375 33.16 90.2375 24.28C90.2375 15.24 84.6375 10.12 75.0775 10.12H60.5575V38H74.9975ZM67.8775 16.08H74.1575C78.2375 16.08 82.8775 17.48 82.8775 24.08C82.8775 32.04 75.7975 32.04 73.5575 32.04H67.8775V16.08ZM114.088 27.24C117.528 26.24 120.008 23.92 120.008 18.88C120.008 11.64 114.768 10.12 108.288 10.12H93.4481V38H100.648V27.92H106.808L112.648 38H120.928L114.088 27.24ZM108.008 15.4C110.048 15.4 112.728 15.64 112.728 18.96C112.728 22.32 110.088 22.6 108.008 22.6H100.648V15.4H108.008ZM139.241 38.68C149.641 38.68 155.841 32.96 155.841 24.08C155.841 15.16 149.761 9.44 139.241 9.44C128.841 9.44 122.641 15.24 122.641 24.08C122.641 32.92 128.841 38.68 139.241 38.68ZM139.241 32.72C133.161 32.72 129.881 29.4 129.881 24.08C129.881 18.76 133.121 15.4 139.241 15.4C145.321 15.4 148.521 18.76 148.521 24.08C148.521 29.36 145.321 32.72 139.241 32.72ZM176.034 20.96L189.314 10.12H179.194L166.274 21.32V10.12H159.034V38H166.274V28.92L170.914 25.16L180.674 38H189.514L176.034 20.96Z" fill="black"/>
</svg>
